<svg xmlns="http://www.w3.org/2000/svg" viewBox="0 0 1200 800">
  <defs>
    <linearGradient id="bg" x1="0%" y1="0%" x2="100%" y2="100%">
      <stop offset="0%" stop-color="#10b981" />
      <stop offset="100%" stop-color="#059669" />
    </linearGradient>
  </defs>
  <rect width="1200" height="800" fill="url(#bg)" />
  <!-- Topo lines -->
  <path d="M0 200C300 250 600 150 1200 250" fill="none" stroke="#fff" stroke-width="2" opacity="0.1" />
  <path d="M0 400C400 500 800 300 1200 450" fill="none" stroke="#fff" stroke-width="2" opacity="0.1" />
  <path d="M0 600C300 700 700 550 1200 650" fill="none" stroke="#fff" stroke-width="2" opacity="0.1" />
  <!-- Route Line -->
  <path d="M200 600C400 400 600 700 800 300C900 100 1000 200 1000 200" fill="none" stroke="#fff" stroke-width="12" stroke-linecap="round" opacity="0.6" />
  <!-- Map Pin -->
  <path d="M800 300C800 300 840 220 840 180C840 140 800 140 800 140C800 140 760 140 760 180C760 220 800 300 800 300Z" fill="#fff" opacity="0.9" />
  <circle cx="800" cy="180" r="16" fill="#059669" />
</svg>
